<?xml version="1.0" encoding="UTF-8"?>
<svg xmlns="http://www.w3.org/2000/svg" xmlns:xlink="http://www.w3.org/1999/xlink" width="10pt" height="10pt" viewBox="0 0 10 10" version="1.1">
<g id="surface1">
<path style=" stroke:none;fill-rule:nonzero;fill:rgb(0%,0%,0%);fill-opacity:1;" d="M 2.753906 0.554688 C 1.972656 1.121094 0.453125 2.742188 0.285156 3.195312 C 0.0976562 3.691406 0.0976562 7.046875 0.285156 7.402344 C 0.425781 7.640625 0.597656 7.671875 2.058594 7.671875 L 3.691406 7.671875 L 3.691406 8.566406 C 3.691406 9.078125 3.765625 9.53125 3.863281 9.628906 C 4.105469 9.871094 9.390625 9.871094 9.628906 9.628906 C 9.757812 9.503906 9.800781 8.496094 9.800781 5.9375 C 9.800781 2.613281 9.785156 2.414062 9.53125 2.273438 C 9.191406 2.089844 7.472656 2.089844 6.847656 2.257812 L 6.390625 2.402344 L 6.390625 1.433594 C 6.390625 0.878906 6.320312 0.410156 6.222656 0.3125 C 6.109375 0.199219 5.554688 0.140625 4.6875 0.140625 C 3.394531 0.140625 3.28125 0.171875 2.753906 0.554688 Z M 5.683594 1.945312 L 5.683594 3.027344 L 4.6875 4.0625 L 3.691406 5.085938 L 3.691406 6.960938 L 0.851562 6.960938 L 0.851562 3.550781 L 2.101562 3.550781 C 2.882812 3.550781 3.410156 3.496094 3.523438 3.378906 C 3.621094 3.28125 3.691406 2.753906 3.691406 2.03125 L 3.691406 0.851562 L 5.683594 0.851562 Z M 2.984375 2.058594 L 2.984375 2.839844 L 1.363281 2.839844 L 2.128906 2.058594 C 2.558594 1.632812 2.925781 1.277344 2.941406 1.277344 C 2.96875 1.277344 2.984375 1.632812 2.984375 2.058594 Z M 9.089844 5.964844 L 9.089844 9.089844 L 6.746094 9.089844 C 5.453125 9.089844 4.402344 9.046875 4.390625 8.976562 C 4.390625 8.921875 4.359375 8.152344 4.359375 7.273438 L 4.332031 5.683594 L 5.554688 5.683594 C 6.308594 5.683594 6.832031 5.609375 6.933594 5.511719 C 7.046875 5.398438 7.101562 4.871094 7.101562 4.089844 L 7.101562 2.839844 L 9.089844 2.839844 Z M 6.390625 4.191406 L 6.390625 4.972656 L 4.773438 4.972656 L 5.539062 4.191406 C 5.964844 3.765625 6.335938 3.410156 6.347656 3.410156 C 6.378906 3.410156 6.390625 3.765625 6.390625 4.191406 Z M 6.390625 4.191406 "/>
</g>
</svg>
