<?xml version="1.0" standalone="no"?>
<!DOCTYPE svg PUBLIC "-//W3C//DTD SVG 20010904//EN"
 "http://www.w3.org/TR/2001/REC-SVG-20010904/DTD/svg10.dtd">
<svg version="1.0" xmlns="http://www.w3.org/2000/svg"
 width="50.000000pt" height="50.000000pt" viewBox="0 0 50.000000 50.000000"
 preserveAspectRatio="xMidYMid meet">

<g transform="translate(0.000000,50.000000) scale(0.100000,-0.100000)"
fill="#000000" stroke="none">
<path d="M63 480 c-141 -85 -29 -309 155 -310 68 0 79 -6 164 -96 51 -54 77
-74 92 -72 45 6 30 42 -48 116 -89 85 -96 96 -96 162 0 28 -7 67 -15 87 -13
32 -17 34 -33 22 -9 -8 -22 -20 -28 -28 -12 -16 -34 -7 -34 14 0 8 13 15 33
17 26 3 29 6 14 12 -11 5 -27 4 -42 -4 -27 -14 -49 -5 -41 17 4 10 2 13 -8 10
-22 -8 -40 17 -23 32 8 6 17 8 21 4 4 -4 12 -1 17 7 8 12 10 11 8 -5 -3 -47
-1 -50 51 -50 52 0 68 14 54 48 -4 12 -14 15 -35 10 -16 -3 -46 2 -69 11 -54
21 -98 20 -137 -4z m77 -4 c0 -3 -4 -8 -10 -11 -5 -3 -10 -1 -10 4 0 6 5 11
10 11 6 0 10 -2 10 -4z m-34 -17 c10 -17 -13 -36 -27 -22 -12 12 -4 33 11 33
5 0 12 -5 16 -11z m-40 -40 c10 -17 -13 -36 -27 -22 -12 12 -4 33 11 33 5 0
12 -5 16 -11z m80 0 c10 -17 -13 -36 -27 -22 -12 12 -4 33 11 33 5 0 12 -5 16
-11z m33 -55 c-9 -11 -15 -12 -25 -3 -11 9 -12 15 -3 25 9 11 15 12 25 3 11
-9 12 -15 3 -25z m-73 15 c10 -17 -13 -36 -27 -22 -12 12 -4 33 11 33 5 0 12
-5 16 -11z m-66 -3 c0 -3 -4 -8 -10 -11 -5 -3 -10 -1 -10 4 0 6 5 11 10 11 6
0 10 -2 10 -4z m29 -52 c-9 -11 -15 -12 -25 -3 -11 9 -12 15 -3 25 9 11 15 12
25 3 11 -9 12 -15 3 -25z m70 0 c-9 -11 -15 -12 -25 -3 -11 9 -12 15 -3 25 9
11 15 12 25 3 11 -9 12 -15 3 -25z m80 0 c-9 -11 -15 -12 -25 -3 -11 9 -12 15
-3 25 9 11 15 12 25 3 11 -9 12 -15 3 -25z m70 0 c-9 -11 -15 -12 -25 -3 -11
9 -12 15 -3 25 9 11 15 12 25 3 11 -9 12 -15 3 -25z m-183 -15 c10 -17 -13
-36 -27 -22 -12 12 -4 33 11 33 5 0 12 -5 16 -11z m73 -25 c-9 -11 -15 -12
-25 -3 -11 9 -12 15 -3 25 9 11 15 12 25 3 11 -9 12 -15 3 -25z m77 25 c10
-17 -13 -36 -27 -22 -12 12 -4 33 11 33 5 0 12 -5 16 -11z m-110 -40 c10 -17
-13 -36 -27 -22 -12 12 -4 33 11 33 5 0 12 -5 16 -11z m70 0 c10 -17 -13 -36
-27 -22 -12 12 -4 33 11 33 5 0 12 -5 16 -11z m80 0 c10 -17 -13 -36 -27 -22
-12 12 -4 33 11 33 5 0 12 -5 16 -11z m-117 -55 c-9 -11 -15 -12 -25 -3 -11 9
-12 15 -3 25 9 11 15 12 25 3 11 -9 12 -15 3 -25z m77 15 c10 -17 -13 -36 -27
-22 -12 12 -4 33 11 33 5 0 12 -5 16 -11z m78 -61 c-3 -4 -16 -1 -30 8 -20 13
-22 19 -12 31 10 12 14 11 29 -8 10 -13 15 -27 13 -31z"/>
<path d="M225 490 c-4 -6 7 -10 25 -10 18 0 29 4 25 10 -3 6 -15 10 -25 10
-10 0 -22 -4 -25 -10z"/>
</g>
</svg>
