<?xml version="1.0" encoding="UTF-8"?>
<svg xmlns="http://www.w3.org/2000/svg" xmlns:xlink="http://www.w3.org/1999/xlink" width="10pt" height="10pt" viewBox="0 0 10 10" version="1.1">
<g id="surface1">
<path style=" stroke:none;fill-rule:nonzero;fill:rgb(0%,0%,0%);fill-opacity:1;" d="M 0.296875 1.648438 C 0.015625 2.003906 0 2.203125 0 5.042969 C 0 7.996094 0 8.054688 0.328125 8.351562 C 0.652344 8.664062 0.738281 8.664062 4.984375 8.664062 L 9.332031 8.664062 L 9.628906 8.339844 C 9.929688 8.027344 9.941406 7.898438 9.941406 5.015625 C 9.941406 2.203125 9.929688 2.003906 9.644531 1.648438 L 9.359375 1.277344 L 0.582031 1.277344 Z M 8.933594 1.945312 C 8.296875 2.769531 5.46875 5.683594 5.242188 5.753906 C 5.085938 5.808594 4.773438 5.765625 4.574219 5.683594 C 4.234375 5.527344 2.128906 3.339844 1.152344 2.128906 L 0.808594 1.703125 L 4.972656 1.703125 C 8.90625 1.703125 9.121094 1.71875 8.933594 1.945312 Z M 2.128906 3.835938 L 3.421875 5.226562 L 2.671875 5.921875 C 2.257812 6.308594 1.578125 6.933594 1.179688 7.316406 L 0.425781 7.996094 L 0.425781 5.042969 C 0.425781 2.429688 0.453125 2.117188 0.640625 2.273438 C 0.753906 2.371094 1.433594 3.082031 2.128906 3.835938 Z M 9.488281 6.433594 L 9.445312 7.925781 L 7.996094 6.621094 C 7.214844 5.910156 6.578125 5.285156 6.578125 5.226562 C 6.589844 5.183594 7.246094 4.445312 8.027344 3.609375 L 9.445312 2.074219 L 9.488281 3.523438 C 9.503906 4.304688 9.503906 5.625 9.488281 6.433594 Z M 4.148438 5.964844 C 4.746094 6.320312 5.199219 6.320312 5.808594 5.953125 C 6.378906 5.609375 6.347656 5.597656 8.027344 7.171875 L 9.160156 8.238281 L 0.78125 8.238281 L 1.136719 7.898438 C 1.875 7.203125 3.578125 5.683594 3.636719 5.683594 C 3.664062 5.683594 3.890625 5.808594 4.148438 5.964844 Z M 4.148438 5.964844 "/>
</g>
</svg>
