<?xml version="1.0" standalone="no"?>
<!DOCTYPE svg PUBLIC "-//W3C//DTD SVG 20010904//EN"
 "http://www.w3.org/TR/2001/REC-SVG-20010904/DTD/svg10.dtd">
<svg version="1.0" xmlns="http://www.w3.org/2000/svg"
 width="50.000000pt" height="50.000000pt" viewBox="0 0 50.000000 50.000000"
 preserveAspectRatio="xMidYMid meet">

<g transform="translate(0.000000,50.000000) scale(0.100000,-0.100000)"
fill="#000000" stroke="none">
<path d="M162 437 c-50 -52 -114 -208 -118 -289 -3 -61 -1 -69 19 -82 33 -21
128 -36 233 -36 106 0 138 11 154 51 31 75 -44 145 -113 107 -12 -7 -47 -11
-78 -9 -41 2 -59 -1 -68 -13 -24 -29 -31 -17 -31 59 0 96 10 118 64 134 38 11
43 16 44 41 0 22 -7 35 -28 50 -37 26 -41 26 -78 -13z"/>
</g>
</svg>
