<?xml version="1.0" encoding="UTF-8"?>
<svg xmlns="http://www.w3.org/2000/svg" xmlns:xlink="http://www.w3.org/1999/xlink" width="10pt" height="10pt" viewBox="0 0 10 10" version="1.1">
<g id="surface1">
<path style=" stroke:none;fill-rule:nonzero;fill:rgb(0%,0%,0%);fill-opacity:1;" d="M 3.59375 0.199219 C 2.128906 0.683594 1.09375 1.589844 0.441406 2.984375 C 0.128906 3.636719 0.0703125 3.964844 0.0703125 4.972656 C 0.0703125 6.050781 0.128906 6.292969 0.539062 7.128906 C 1.078125 8.222656 1.847656 8.976562 2.96875 9.503906 C 3.636719 9.816406 3.964844 9.871094 4.972656 9.871094 C 5.980469 9.871094 6.308594 9.816406 6.972656 9.503906 C 8.097656 8.976562 8.863281 8.222656 9.402344 7.128906 C 9.816406 6.292969 9.871094 6.050781 9.871094 4.972656 C 9.871094 3.964844 9.816406 3.636719 9.503906 2.96875 C 8.679688 1.207031 7.101562 0.140625 5.214844 0.0585938 C 4.601562 0.015625 3.949219 0.0859375 3.59375 0.199219 Z M 6.761719 0.910156 C 7.785156 1.390625 8.453125 2.015625 8.949219 3.011719 C 9.316406 3.75 9.375 4.035156 9.375 4.957031 C 9.375 6.777344 8.535156 8.140625 6.933594 8.949219 C 6.191406 9.316406 5.910156 9.375 4.972656 9.375 C 4.035156 9.375 3.75 9.316406 3.011719 8.949219 C 1.421875 8.140625 0.566406 6.777344 0.566406 4.972656 C 0.566406 3.167969 1.421875 1.804688 3.011719 0.996094 C 4.160156 0.425781 5.652344 0.382812 6.761719 0.910156 Z M 6.761719 0.910156 "/>
<path style=" stroke:none;fill-rule:nonzero;fill:rgb(0%,0%,0%);fill-opacity:1;" d="M 2.585938 2.597656 C 2.046875 3.152344 2.003906 3.621094 2.414062 4.515625 C 2.796875 5.371094 4.433594 7.015625 5.296875 7.457031 C 6.308594 7.953125 6.789062 7.925781 7.386719 7.316406 C 7.640625 7.046875 7.839844 6.804688 7.796875 6.777344 C 7.769531 6.746094 7.429688 6.535156 7.058594 6.320312 L 6.378906 5.921875 L 6.066406 6.222656 C 5.765625 6.503906 5.710938 6.503906 5.328125 6.308594 C 4.746094 6.007812 3.890625 5.171875 3.636719 4.628906 C 3.4375 4.21875 3.453125 4.175781 3.722656 3.878906 L 4.019531 3.550781 L 3.652344 2.882812 C 3.453125 2.515625 3.238281 2.1875 3.167969 2.171875 C 3.097656 2.144531 2.839844 2.34375 2.585938 2.597656 Z M 2.585938 2.597656 "/>
</g>
</svg>
