<?xml version="1.0" standalone="no"?>
<!DOCTYPE svg PUBLIC "-//W3C//DTD SVG 20010904//EN"
 "http://www.w3.org/TR/2001/REC-SVG-20010904/DTD/svg10.dtd">
<svg version="1.0" xmlns="http://www.w3.org/2000/svg"
 width="50.000000pt" height="63.000000pt" viewBox="0 0 50.000000 63.000000"
 preserveAspectRatio="xMidYMid meet">

<g transform="translate(0.000000,63.000000) scale(0.100000,-0.100000)"
fill="#000000" stroke="none">
<path d="M231 543 c-23 -36 -44 -77 -46 -90 -4 -40 -18 -44 -50 -14 -32 29
-43 74 -24 97 9 11 9 18 1 26 -17 17 -44 -9 -32 -32 5 -9 7 -20 3 -24 -3 -3
-8 -61 -9 -129 -5 -186 -11 -217 -40 -217 -12 0 -13 -4 -4 -21 7 -11 12 -41
13 -66 l2 -45 95 7 c107 9 93 9 220 0 l95 -6 -1 43 c-1 77 -3 84 -23 84 -11 0
-17 -6 -14 -13 3 -7 -5 -24 -16 -39 -12 -15 -21 -33 -21 -40 0 -8 -4 -14 -10
-14 -5 0 -10 9 -10 19 0 11 -4 22 -9 25 -5 3 -7 15 -4 26 3 11 1 26 -5 33 -6
7 -20 35 -31 62 -15 36 -16 43 -5 28 19 -27 49 -30 58 -7 3 9 6 46 6 83 0 62
2 69 29 88 38 29 39 78 1 78 -21 0 -26 -6 -31 -38 -3 -20 -8 -38 -10 -40 -37
-21 -44 -22 -75 -7 -39 18 -42 37 -20 140 8 36 13 66 12 67 0 1 -21 -28 -45
-64z m-128 -245 c-8 -39 23 -50 48 -17 l19 24 -5 -45 c-4 -25 -10 -63 -15 -85
-5 -22 -12 -58 -15 -79 l-6 -39 -20 32 c-10 17 -23 31 -29 31 -10 0 -4 186 6
220 9 26 23 -11 17 -42z"/>
</g>
</svg>
