<?xml version="1.0" encoding="UTF-8"?>
<svg xmlns="http://www.w3.org/2000/svg" xmlns:xlink="http://www.w3.org/1999/xlink" width="40pt" height="40pt" viewBox="0 0 40 40" version="1.1">
<g id="surface1">
<path style=" stroke:none;fill-rule:nonzero;fill:rgb(0%,0%,0%);fill-opacity:1;" d="M 7.101562 2.558594 C 2.273438 4.316406 1.535156 6.816406 1.816406 21.25 C 2.101562 37.953125 1.933594 37.785156 19.886719 37.785156 C 30.511719 37.785156 32.328125 37.671875 33.921875 36.761719 C 37.5 34.828125 37.785156 33.523438 37.785156 19.886719 C 37.785156 1.816406 38.011719 2.046875 20.738281 1.875 C 11.933594 1.761719 8.863281 1.875 7.101562 2.558594 Z M 13.066406 15.683594 C 14.714844 19.433594 16.476562 21.816406 17.160156 21.136719 C 17.726562 20.566406 17.5 16.648438 16.761719 14.316406 C 16.363281 13.066406 16.421875 13.011719 19.089844 13.183594 L 21.875 13.351562 L 22.160156 16.933594 L 22.441406 20.566406 L 23.636719 19.203125 C 24.316406 18.523438 25.398438 16.816406 26.078125 15.453125 C 27.160156 13.351562 27.5 13.066406 29.261719 13.066406 C 30.285156 13.066406 31.308594 13.296875 31.476562 13.578125 C 31.648438 13.808594 30.910156 15.511719 29.828125 17.328125 C 28.75 19.089844 27.839844 20.683594 27.839844 20.851562 C 27.839844 21.023438 28.75 22.214844 29.828125 23.523438 C 32.386719 26.648438 32.441406 27.839844 30.058594 27.839844 C 28.75 27.839844 27.558594 27.214844 25.796875 25.566406 C 24.433594 24.316406 23.066406 23.296875 22.726562 23.296875 C 22.441406 23.296875 22.160156 24.203125 22.160156 25.285156 C 22.160156 27.785156 21.191406 28.238281 18.011719 27.273438 C 15 26.421875 11.421875 22.785156 9.433594 18.578125 C 7.328125 14.089844 7.441406 13.066406 9.941406 13.066406 C 11.816406 13.066406 12.046875 13.296875 13.066406 15.683594 Z M 13.066406 15.683594 "/>
</g>
</svg>
